<svg xmlns="http://www.w3.org/2000/svg" viewBox="0 0 40 40" fill="none">
  <!-- Fundo circular -->
  <circle cx="20" cy="20" r="20" fill="#0f172a"/>
  
  <!-- Luva esquerda (D) -->
  <path d="M12 14C12 12.8954 12.8954 12 14 12H17C18.1046 12 19 12.8954 19 14V22C19 24.2091 17.2091 26 15 26H14C12.8954 26 12 25.1046 12 24V14Z" fill="#f97316"/>
  <rect x="12" y="22" width="7" height="5" rx="2" fill="#f97316"/>
  
  <!-- Luva direita (A) -->
  <path d="M28 14C28 12.8954 27.1046 12 26 12H23C21.8954 12 21 12.8954 21 14V22C21 24.2091 22.7909 26 25 26H26C27.1046 26 28 25.1046 28 24V14Z" fill="#f97316"/>
  <rect x="21" y="22" width="7" height="5" rx="2" fill="#f97316"/>
  
  <!-- VS no centro -->
  <text x="20" y="19" text-anchor="middle" font-size="8" font-weight="900" fill="#0f172a" font-family="system-ui, -apple-system, sans-serif">VS</text>
</svg>
